<svg width="32" height="32" viewBox="0 0 32 32" fill="none" xmlns="http://www.w3.org/2000/svg">
<mask id="path-2-inside-1_7583_549" fill="white">
<path d="M11.9751 7C11.9053 6.99973 11.836 7.01331 11.7714 7.03996C11.7068 7.06662 11.6481 7.10581 11.5987 7.15528C11.5493 7.20475 11.5103 7.26352 11.4837 7.32818C11.4572 7.39285 11.4438 7.46213 11.4442 7.53202V8.10122H10.6549C9.74752 8.10122 9 8.84977 9 9.75718V23.3282C9 24.2356 9.74752 24.9841 10.6549 24.9841H18.0308C18.1704 24.9836 18.3041 24.9279 18.4027 24.8292C18.5014 24.7305 18.5571 24.5968 18.5576 24.4573C18.5579 24.3878 18.5445 24.319 18.5182 24.2547C18.4919 24.1904 18.4531 24.132 18.4042 24.0827C18.3553 24.0334 18.2971 23.9942 18.2331 23.9674C18.169 23.9405 18.1003 23.9266 18.0308 23.9263H10.6549C10.3152 23.9263 10.0578 23.6678 10.0578 23.3282V9.75718C10.0578 9.41753 10.3152 9.16008 10.6549 9.16008H11.4442V9.72928C11.4439 9.79909 11.4574 9.86826 11.484 9.9328C11.5106 9.99735 11.5497 10.056 11.5991 10.1054C11.6484 10.1547 11.7071 10.1938 11.7716 10.2204C11.8362 10.247 11.9053 10.2605 11.9751 10.2603C12.0446 10.26 12.1133 10.246 12.1774 10.2192C12.2415 10.1924 12.2996 10.1532 12.3485 10.1039C12.3975 10.0546 12.4362 9.99612 12.4625 9.93185C12.4889 9.86757 12.5023 9.79874 12.502 9.72928V9.16008H15.3873V9.72928C15.387 9.79909 15.4005 9.86826 15.4271 9.9328C15.4537 9.99735 15.4928 10.056 15.5422 10.1054C15.5915 10.1547 15.6502 10.1938 15.7147 10.2204C15.7793 10.247 15.8484 10.2605 15.9182 10.2603C15.9877 10.26 16.0564 10.246 16.1205 10.2192C16.1846 10.1924 16.2427 10.1532 16.2916 10.1039C16.3406 10.0546 16.3793 9.99612 16.4056 9.93185C16.432 9.86757 16.4454 9.79874 16.4451 9.72928V9.16008H19.3345V9.72928C19.3342 9.79883 19.3477 9.86774 19.3741 9.93209C19.4005 9.99643 19.4393 10.0549 19.4883 10.1043C19.5373 10.1536 19.5956 10.1927 19.6598 10.2195C19.724 10.2463 19.7928 10.2601 19.8624 10.2603C19.9322 10.2605 20.0014 10.247 20.0659 10.2204C20.1304 10.1938 20.1891 10.1547 20.2384 10.1054C20.2878 10.056 20.3269 9.99735 20.3535 9.9328C20.3801 9.86826 20.3936 9.79909 20.3934 9.72928V9.16008H21.1816C21.5212 9.16008 21.7787 9.41753 21.7787 9.75718V20.1774C21.7789 20.3173 21.8346 20.4514 21.9336 20.5504C22.0325 20.6493 22.1666 20.705 22.3065 20.7053C22.3761 20.7056 22.445 20.6921 22.5093 20.6657C22.5737 20.6393 22.6322 20.6005 22.6815 20.5515C22.7308 20.5024 22.77 20.4442 22.7968 20.38C22.8235 20.3158 22.8374 20.247 22.8375 20.1774V9.75718C22.8375 8.84978 22.089 8.10122 21.1816 8.10122H20.3934V7.53202C20.3938 7.46213 20.3803 7.39284 20.3538 7.32818C20.3273 7.26352 20.2882 7.20475 20.2388 7.15528C20.1894 7.10581 20.1308 7.06661 20.0661 7.03996C20.0015 7.01331 19.9323 6.99973 19.8624 7C19.7927 7.00014 19.7238 7.01402 19.6596 7.04086C19.5953 7.06769 19.537 7.10695 19.4879 7.15638C19.4389 7.20581 19.4001 7.26444 19.3738 7.3289C19.3474 7.39336 19.3341 7.46239 19.3345 7.53202V8.10122H16.4451V7.53202C16.4455 7.46247 16.4322 7.39353 16.4059 7.32914C16.3797 7.26474 16.3409 7.20616 16.292 7.15675C16.2431 7.10733 16.1849 7.06805 16.1207 7.04115C16.0566 7.01426 15.9878 7.00027 15.9182 7C15.8484 6.99973 15.7791 7.01331 15.7145 7.03996C15.6499 7.06661 15.5912 7.10581 15.5418 7.15528C15.4924 7.20475 15.4534 7.26352 15.4268 7.32818C15.4003 7.39284 15.3869 7.46213 15.3873 7.53202V8.10122H12.502V7.53202C12.5024 7.46247 12.4891 7.39353 12.4628 7.32914C12.4366 7.26474 12.3978 7.20616 12.3489 7.15674C12.3 7.10733 12.2418 7.06805 12.1776 7.04115C12.1135 7.01426 12.0447 7.00027 11.9751 7ZM12.2096 12.1383C12.1401 12.1385 12.0713 12.1523 12.0071 12.1791C11.9429 12.2058 11.8846 12.245 11.8356 12.2943C11.7865 12.3437 11.7477 12.4022 11.7213 12.4665C11.6949 12.5308 11.6815 12.5998 11.6818 12.6693C11.682 12.8092 11.7377 12.9433 11.8367 13.0423C11.9356 13.1412 12.0697 13.1969 12.2096 13.1972H19.6279C19.7676 13.1966 19.9015 13.1408 20.0002 13.0419C20.0989 12.943 20.1545 12.809 20.1547 12.6693C20.155 12.5998 20.1416 12.531 20.1153 12.4667C20.0889 12.4025 20.0502 12.344 20.0013 12.2947C19.9524 12.2454 19.8942 12.2062 19.8301 12.1794C19.7661 12.1525 19.6973 12.1386 19.6279 12.1383H12.2096ZM12.2096 15.1961C12.0699 15.1964 11.9359 15.2519 11.837 15.3507C11.7381 15.4494 11.6823 15.5832 11.6818 15.723C11.6815 15.7925 11.6949 15.8614 11.7213 15.9258C11.7477 15.9901 11.7865 16.0486 11.8356 16.0979C11.8846 16.1472 11.9429 16.1864 12.0071 16.2132C12.0713 16.24 12.1401 16.2538 12.2096 16.2539H19.6279C19.6973 16.2537 19.7661 16.2397 19.8301 16.2129C19.8942 16.1861 19.9524 16.1469 20.0013 16.0976C20.0502 16.0483 20.0889 15.9898 20.1153 15.9255C20.1416 15.8612 20.155 15.7924 20.1547 15.723C20.1542 15.5834 20.0985 15.4497 19.9998 15.351C19.9011 15.2523 19.7674 15.1967 19.6279 15.1961H12.2096ZM12.2096 18.2529C12.0699 18.2531 11.9359 18.3087 11.837 18.4074C11.7381 18.5061 11.6823 18.64 11.6818 18.7797C11.6815 18.8493 11.6949 18.9182 11.7213 18.9825C11.7477 19.0469 11.7865 19.1054 11.8356 19.1547C11.8846 19.204 11.9429 19.2432 12.0071 19.2699C12.0713 19.2967 12.1401 19.3106 12.2096 19.3107H14.3377C14.4072 19.3104 14.4759 19.2965 14.5399 19.2696C14.604 19.2428 14.6622 19.2036 14.7111 19.1543C14.76 19.105 14.7987 19.0466 14.8251 18.9823C14.8514 18.918 14.8648 18.8492 14.8645 18.7797C14.864 18.6402 14.8083 18.5065 14.7096 18.4078C14.611 18.3091 14.4773 18.2534 14.3377 18.2529H12.2096ZM16.7405 18.3758C16.6655 18.3781 16.5918 18.3964 16.5243 18.4294C16.4568 18.4624 16.3972 18.5094 16.3493 18.5672C16.3014 18.6251 16.2664 18.6925 16.2466 18.7649C16.2268 18.8373 16.2226 18.9132 16.2344 18.9873L16.4689 20.5018C16.486 20.6129 16.5381 20.7157 16.6176 20.7952L20.4202 24.5978C20.9665 25.1441 21.8655 25.0966 22.4078 24.5544C22.95 24.0122 22.9964 23.1131 22.4501 22.5668L18.6475 18.7642C18.5671 18.6845 18.4632 18.6327 18.3511 18.6165L16.8397 18.382C16.8069 18.3768 16.7737 18.3747 16.7405 18.3758ZM17.3903 19.538L18.0194 19.6351L21.7012 23.3168C21.8175 23.4331 21.8257 23.6376 21.6578 23.8054C21.49 23.9733 21.2824 23.9641 21.1661 23.8478L17.4843 20.1661L17.3903 19.538Z"/>
</mask>
<path d="M11.9751 7C11.9053 6.99973 11.836 7.01331 11.7714 7.03996C11.7068 7.06662 11.6481 7.10581 11.5987 7.15528C11.5493 7.20475 11.5103 7.26352 11.4837 7.32818C11.4572 7.39285 11.4438 7.46213 11.4442 7.53202V8.10122H10.6549C9.74752 8.10122 9 8.84977 9 9.75718V23.3282C9 24.2356 9.74752 24.9841 10.6549 24.9841H18.0308C18.1704 24.9836 18.3041 24.9279 18.4027 24.8292C18.5014 24.7305 18.5571 24.5968 18.5576 24.4573C18.5579 24.3878 18.5445 24.319 18.5182 24.2547C18.4919 24.1904 18.4531 24.132 18.4042 24.0827C18.3553 24.0334 18.2971 23.9942 18.2331 23.9674C18.169 23.9405 18.1003 23.9266 18.0308 23.9263H10.6549C10.3152 23.9263 10.0578 23.6678 10.0578 23.3282V9.75718C10.0578 9.41753 10.3152 9.16008 10.6549 9.16008H11.4442V9.72928C11.4439 9.79909 11.4574 9.86826 11.484 9.9328C11.5106 9.99735 11.5497 10.056 11.5991 10.1054C11.6484 10.1547 11.7071 10.1938 11.7716 10.2204C11.8362 10.247 11.9053 10.2605 11.9751 10.2603C12.0446 10.26 12.1133 10.246 12.1774 10.2192C12.2415 10.1924 12.2996 10.1532 12.3485 10.1039C12.3975 10.0546 12.4362 9.99612 12.4625 9.93185C12.4889 9.86757 12.5023 9.79874 12.502 9.72928V9.16008H15.3873V9.72928C15.387 9.79909 15.4005 9.86826 15.4271 9.9328C15.4537 9.99735 15.4928 10.056 15.5422 10.1054C15.5915 10.1547 15.6502 10.1938 15.7147 10.2204C15.7793 10.247 15.8484 10.2605 15.9182 10.2603C15.9877 10.26 16.0564 10.246 16.1205 10.2192C16.1846 10.1924 16.2427 10.1532 16.2916 10.1039C16.3406 10.0546 16.3793 9.99612 16.4056 9.93185C16.432 9.86757 16.4454 9.79874 16.4451 9.72928V9.16008H19.3345V9.72928C19.3342 9.79883 19.3477 9.86774 19.3741 9.93209C19.4005 9.99643 19.4393 10.0549 19.4883 10.1043C19.5373 10.1536 19.5956 10.1927 19.6598 10.2195C19.724 10.2463 19.7928 10.2601 19.8624 10.2603C19.9322 10.2605 20.0014 10.247 20.0659 10.2204C20.1304 10.1938 20.1891 10.1547 20.2384 10.1054C20.2878 10.056 20.3269 9.99735 20.3535 9.9328C20.3801 9.86826 20.3936 9.79909 20.3934 9.72928V9.16008H21.1816C21.5212 9.16008 21.7787 9.41753 21.7787 9.75718V20.1774C21.7789 20.3173 21.8346 20.4514 21.9336 20.5504C22.0325 20.6493 22.1666 20.705 22.3065 20.7053C22.3761 20.7056 22.445 20.6921 22.5093 20.6657C22.5737 20.6393 22.6322 20.6005 22.6815 20.5515C22.7308 20.5024 22.77 20.4442 22.7968 20.38C22.8235 20.3158 22.8374 20.247 22.8375 20.1774V9.75718C22.8375 8.84978 22.089 8.10122 21.1816 8.10122H20.3934V7.53202C20.3938 7.46213 20.3803 7.39284 20.3538 7.32818C20.3273 7.26352 20.2882 7.20475 20.2388 7.15528C20.1894 7.10581 20.1308 7.06661 20.0661 7.03996C20.0015 7.01331 19.9323 6.99973 19.8624 7C19.7927 7.00014 19.7238 7.01402 19.6596 7.04086C19.5953 7.06769 19.537 7.10695 19.4879 7.15638C19.4389 7.20581 19.4001 7.26444 19.3738 7.3289C19.3474 7.39336 19.3341 7.46239 19.3345 7.53202V8.10122H16.4451V7.53202C16.4455 7.46247 16.4322 7.39353 16.4059 7.32914C16.3797 7.26474 16.3409 7.20616 16.292 7.15675C16.2431 7.10733 16.1849 7.06805 16.1207 7.04115C16.0566 7.01426 15.9878 7.00027 15.9182 7C15.8484 6.99973 15.7791 7.01331 15.7145 7.03996C15.6499 7.06661 15.5912 7.10581 15.5418 7.15528C15.4924 7.20475 15.4534 7.26352 15.4268 7.32818C15.4003 7.39284 15.3869 7.46213 15.3873 7.53202V8.10122H12.502V7.53202C12.5024 7.46247 12.4891 7.39353 12.4628 7.32914C12.4366 7.26474 12.3978 7.20616 12.3489 7.15674C12.3 7.10733 12.2418 7.06805 12.1776 7.04115C12.1135 7.01426 12.0447 7.00027 11.9751 7ZM12.2096 12.1383C12.1401 12.1385 12.0713 12.1523 12.0071 12.1791C11.9429 12.2058 11.8846 12.245 11.8356 12.2943C11.7865 12.3437 11.7477 12.4022 11.7213 12.4665C11.6949 12.5308 11.6815 12.5998 11.6818 12.6693C11.682 12.8092 11.7377 12.9433 11.8367 13.0423C11.9356 13.1412 12.0697 13.1969 12.2096 13.1972H19.6279C19.7676 13.1966 19.9015 13.1408 20.0002 13.0419C20.0989 12.943 20.1545 12.809 20.1547 12.6693C20.155 12.5998 20.1416 12.531 20.1153 12.4667C20.0889 12.4025 20.0502 12.344 20.0013 12.2947C19.9524 12.2454 19.8942 12.2062 19.8301 12.1794C19.7661 12.1525 19.6973 12.1386 19.6279 12.1383H12.2096ZM12.2096 15.1961C12.0699 15.1964 11.9359 15.2519 11.837 15.3507C11.7381 15.4494 11.6823 15.5832 11.6818 15.723C11.6815 15.7925 11.6949 15.8614 11.7213 15.9258C11.7477 15.9901 11.7865 16.0486 11.8356 16.0979C11.8846 16.1472 11.9429 16.1864 12.0071 16.2132C12.0713 16.24 12.1401 16.2538 12.2096 16.2539H19.6279C19.6973 16.2537 19.7661 16.2397 19.8301 16.2129C19.8942 16.1861 19.9524 16.1469 20.0013 16.0976C20.0502 16.0483 20.0889 15.9898 20.1153 15.9255C20.1416 15.8612 20.155 15.7924 20.1547 15.723C20.1542 15.5834 20.0985 15.4497 19.9998 15.351C19.9011 15.2523 19.7674 15.1967 19.6279 15.1961H12.2096ZM12.2096 18.2529C12.0699 18.2531 11.9359 18.3087 11.837 18.4074C11.7381 18.5061 11.6823 18.64 11.6818 18.7797C11.6815 18.8493 11.6949 18.9182 11.7213 18.9825C11.7477 19.0469 11.7865 19.1054 11.8356 19.1547C11.8846 19.204 11.9429 19.2432 12.0071 19.2699C12.0713 19.2967 12.1401 19.3106 12.2096 19.3107H14.3377C14.4072 19.3104 14.4759 19.2965 14.5399 19.2696C14.604 19.2428 14.6622 19.2036 14.7111 19.1543C14.76 19.105 14.7987 19.0466 14.8251 18.9823C14.8514 18.918 14.8648 18.8492 14.8645 18.7797C14.864 18.6402 14.8083 18.5065 14.7096 18.4078C14.611 18.3091 14.4773 18.2534 14.3377 18.2529H12.2096ZM16.7405 18.3758C16.6655 18.3781 16.5918 18.3964 16.5243 18.4294C16.4568 18.4624 16.3972 18.5094 16.3493 18.5672C16.3014 18.6251 16.2664 18.6925 16.2466 18.7649C16.2268 18.8373 16.2226 18.9132 16.2344 18.9873L16.4689 20.5018C16.486 20.6129 16.5381 20.7157 16.6176 20.7952L20.4202 24.5978C20.9665 25.1441 21.8655 25.0966 22.4078 24.5544C22.95 24.0122 22.9964 23.1131 22.4501 22.5668L18.6475 18.7642C18.5671 18.6845 18.4632 18.6327 18.3511 18.6165L16.8397 18.382C16.8069 18.3768 16.7737 18.3747 16.7405 18.3758ZM17.3903 19.538L18.0194 19.6351L21.7012 23.3168C21.8175 23.4331 21.8257 23.6376 21.6578 23.8054C21.49 23.9733 21.2824 23.9641 21.1661 23.8478L17.4843 20.1661L17.3903 19.538Z" fill="#606162" stroke="#F7F7F7" stroke-width="0.2" mask="url(#path-2-inside-1_7583_549)"/>
</svg>
